<svg xmlns="http://www.w3.org/2000/svg" width="13.541" height="25.144" viewBox="348.815 34 13.541 25.144"><path d="m349.099 35.653 10.921 10.92L349.1 57.49a.964.964 0 0 0-.265.494.968.968 0 0 0 .218.826.982.982 0 0 0 .047.05.964.964 0 0 0 .494.264.968.968 0 0 0 .825-.218.982.982 0 0 0 .05-.046l11.604-11.604a.967.967 0 0 0 .284-.685.967.967 0 0 0-.284-.684l-11.604-11.604a.967.967 0 0 0-.684-.284.967.967 0 0 0-.685.284.967.967 0 0 0-.284.685.967.967 0 0 0 .284.684Z" fill="#fff" fill-rule="evenodd" data-name="chevron-left"/></svg>