<svg xmlns="http://www.w3.org/2000/svg" width="20.671" height="20.671" viewBox="5.798 6.114 20.671 20.671"><path d="M16.134 6.114c-5.71 0-10.336 4.626-10.336 10.335 0 5.71 4.626 10.336 10.336 10.336s10.335-4.626 10.335-10.336A10.334 10.334 0 0 0 16.134 6.114Zm2.618 14.077-2.618-2.619-2.619 2.619c-.3.3-.791.308-1.1.021a.792.792 0 0 1-.023-.021.795.795 0 0 1-.226-.457.787.787 0 0 1-.007-.105.794.794 0 0 1 .205-.532.808.808 0 0 1 .028-.03l2.619-2.618-2.619-2.618a.795.795 0 0 1-.226-.457.787.787 0 0 1-.007-.105.794.794 0 0 1 .205-.532.808.808 0 0 1 .028-.03.789.789 0 0 1 .464-.224.795.795 0 0 1 .66.225l2.618 2.618 2.618-2.618c.301-.301.792-.308 1.101-.022a.792.792 0 0 1 .022.022.789.789 0 0 1 .226.463.795.795 0 0 1-.226.66l-2.618 2.618 2.618 2.619c.301.3.308.791.022 1.1a.792.792 0 0 1-.022.023.789.789 0 0 1-1.085.036.796.796 0 0 1-.038-.036Z" fill="#ff8d8d" fill-rule="evenodd" data-name="Icon ionic-ios-close-circle"/></svg>