<svg xmlns="http://www.w3.org/2000/svg" width="19.63" height="19.63" viewBox="10.798 10.739 19.63 19.63"><path d="M20.613 10.739a9.813 9.813 0 0 0-9.815 9.815 9.813 9.813 0 0 0 9.815 9.815 9.813 9.813 0 0 0 9.815-9.815 9.813 9.813 0 0 0-9.815-9.815ZM23.1 24.107l-2.487-2.487-2.486 2.487a.749.749 0 0 1-.44.214.755.755 0 0 1-.606-.194.752.752 0 0 1-.02-.02.755.755 0 0 1-.216-.434.747.747 0 0 1-.007-.1.754.754 0 0 1 .195-.505.767.767 0 0 1 .027-.028l2.487-2.486-2.487-2.487a.755.755 0 0 1-.215-.434.747.747 0 0 1-.007-.1.754.754 0 0 1 .195-.505.767.767 0 0 1 .027-.027.749.749 0 0 1 .44-.214.755.755 0 0 1 .606.193.752.752 0 0 1 .02.02l2.487 2.487 2.487-2.486a.749.749 0 0 1 .44-.214.755.755 0 0 1 .626.214.749.749 0 0 1 .214.44.755.755 0 0 1-.193.605.752.752 0 0 1-.02.02l-2.487 2.488 2.486 2.486a.749.749 0 0 1 .214.44.755.755 0 0 1-.214.627.744.744 0 0 1-.388.209.748.748 0 0 1-.678-.21Z" fill="#e8f8f7" fill-rule="evenodd" data-name="Icon ionic-ios-close-circle"/></svg>