<svg xmlns="http://www.w3.org/2000/svg" width="21.752" height="34.546" viewBox="43.881 4.599 21.752 34.546"><g data-name="coffee-cup"><path d="m45.701 9.787 1.954 28.904a.48.48 0 0 0 .472.454h13.261a.48.48 0 0 0 .472-.454l1.954-28.904H45.7Z" fill="#f3f0f3" fill-rule="evenodd" data-name="Path 110"/><path d="M63.814 9.787 61.86 38.69a.492.492 0 0 1-.2.365.461.461 0 0 1-.272.089h-1.517a.479.479 0 0 0 .472-.454l1.954-28.904h1.517Z" fill="#e2dee2" fill-rule="evenodd" data-name="Path 111"/><path d="M54.757 17.1h-8.47a.547.547 0 0 0-.546.545.556.556 0 0 0 .001.04l.952 13.639a.547.547 0 0 0 .546.509h15.035a.547.547 0 0 0 .546-.509l.952-13.64a.557.557 0 0 0 .001-.039.547.547 0 0 0-.547-.546h-8.47Z" fill="#cbc4cc" fill-rule="evenodd" data-name="Path 112"/><path d="m63.773 17.684-.952 13.64a.548.548 0 0 1-.546.51h-1.471a.548.548 0 0 0 .546-.51l.952-13.64a.556.556 0 0 0 .001-.038.547.547 0 0 0-.547-.547h1.471a.548.548 0 0 1 .547.547.556.556 0 0 1 0 .038Z" fill="#b5adb6" fill-rule="evenodd" data-name="Path 113"/><path d="M51.313 23.966a3.445 3.445 0 1 1 0 1" fill="#00c27a" fill-rule="evenodd" data-name="Ellipse 7"/><path d="M58.202 24.466a3.445 3.445 0 0 1-3.445 3.445 3.428 3.428 0 0 1-1.88-.558 3.447 3.447 0 0 1-.509-.406c.335.11.691.168 1.062.168a3.445 3.445 0 0 0 3.445-3.445 3.426 3.426 0 0 0-.593-1.932 3.45 3.45 0 0 0-.464-.55 3.446 3.446 0 0 1 2.384 3.278Z" fill="#08b865" fill-rule="evenodd" data-name="Path 114"/><path d="M61.216 4.599H48.298a1.564 1.564 0 0 0-1.5 1.126l-.359 1.226h16.637l-.358-1.226a1.564 1.564 0 0 0-1.502-1.126Z" fill="#cbc4cc" fill-rule="evenodd" data-name="Path 115"/><path d="M63.076 6.952H61.56l-.357-1.227a1.565 1.565 0 0 0-1.502-1.126h1.514c.695 0 1.307.459 1.502 1.126l.358 1.227Z" fill="#b5adb6" fill-rule="evenodd" data-name="Path 116"/><path d="M63.926 6.793H45.589a1.25 1.25 0 0 0-1.08.617 5.165 5.165 0 0 0-.368.794c-.07.185-.13.371-.182.549a9.26 9.26 0 0 0-.049.174.812.812 0 0 0-.028.193v.02a.81.81 0 0 0 .81.806h20.132c.532 0 .92-.506.78-1.02a8.794 8.794 0 0 0-.132-.445 7.43 7.43 0 0 0-.098-.277 5.164 5.164 0 0 0-.369-.794 1.251 1.251 0 0 0-1.08-.617Z" fill="#00c27a" fill-rule="evenodd" data-name="Path 117"/><path d="M64.824 9.946H63.28a.81.81 0 0 0 .81-.806.808.808 0 0 0-.026-.2.833.833 0 0 0-.003-.013 8.754 8.754 0 0 0-.134-.446 7.438 7.438 0 0 0-.097-.278 5.184 5.184 0 0 0-.368-.793 1.253 1.253 0 0 0-1.08-.617h1.542c.444 0 .856.234 1.08.617a5.18 5.18 0 0 1 .369.793c.07.186.13.372.181.55a9.21 9.21 0 0 1 .05.174.808.808 0 0 1-.781 1.019Z" fill="#08b865" fill-rule="evenodd" data-name="Path 118"/></g></svg>