<svg xmlns="http://www.w3.org/2000/svg" width="96" height="82" viewBox="104.584 270 96 82"><g data-name="noun_Empty_203873"><g data-name="Group 186"><path d="M197.246 320.486 177.816 303h-50.464l-19.43 17.486-2.676-2.972L125.816 299h53.536l20.57 18.514-2.676 2.972Z" fill="rgba(232,248,247,0.4 )" fill-rule="evenodd" data-name="Path 296"/></g><g data-name="Group 187"><path d="M194.584 352h-84c-3.309 0-6-2.691-6-6v-29h32v2c0 4.963 4.037 9 9 9h14c4.963 0 9-4.037 9-9v-2h32v29c0 3.309-2.69 6-6 6Zm-86-31v25a2.002 2.002 0 0 0 2 2h84c1.103 0 2-.897 2-2v-25h-24.153a13.02 13.02 0 0 1-12.847 11h-14a13.02 13.02 0 0 1-12.847-11h-24.153Z" fill="rgba(232,248,247,0.4 )" fill-rule="evenodd" data-name="Path 297"/></g><g data-name="Group 188"><path d="m133.271 271.928 7 11-3.374 2.148-7-11 3.374-2.148" fill="rgba(232,248,247,0.4 )" fill-rule="evenodd" data-name="Rectangle 110"/></g><g data-name="Group 189"><path d="m172.897 271.925 3.375 2.147-6.999 11-3.374-2.147 6.998-11" fill="rgba(232,248,247,0.4 )" fill-rule="evenodd" data-name="Rectangle 111"/></g><g data-name="Group 190"><path d="M151 270h4v13h-4v-13" fill="rgba(232,248,247,0.4 )" fill-rule="evenodd" data-name="Rectangle 112"/></g></g></svg>