<svg xmlns="http://www.w3.org/2000/svg" width="14.857" height="14.857" viewBox="1.486 1.486 14.857 14.857"><path d="M8.914 1.486a7.431 7.431 0 0 0-7.428 7.428c0 4.101 3.328 7.429 7.428 7.429 4.101 0 7.429-3.328 7.429-7.429 0-4.1-3.328-7.428-7.429-7.428ZM2.971 8.914a5.95 5.95 0 0 0 5.943 5.943 5.95 5.95 0 0 0 5.943-5.943 5.95 5.95 0 0 0-5.943-5.943 5.95 5.95 0 0 0-5.943 5.943Zm5.2-.742h1.486v4.457H8.172V8.172Zm0-2.972h1.486v1.486H8.172V5.2Z" fill="rgba(15,165,154,0.4117647058823529 )" fill-rule="evenodd" data-name="Path 161"/></svg>