<svg xmlns="http://www.w3.org/2000/svg" width="9.789" height="13.22" viewBox="5.036 2.233 9.789 13.22"><path d="m9.494 12.072.35-1.537 1.292 1.23v3.074a.617.617 0 0 0 .614.615.617.617 0 0 0 .615-.615V11.37a1.223 1.223 0 0 0-.38-.892l-.91-.867.368-1.845a4.502 4.502 0 0 0 2.681 1.482.618.618 0 0 0 .701-.614.614.614 0 0 0-.523-.603c-.934-.154-1.71-.707-2.121-1.433l-.615-.984a1.413 1.413 0 0 0-.59-.517A1.112 1.112 0 0 0 10.52 5c-.185 0-.308.062-.492.062L7.58 6.095a1.236 1.236 0 0 0-.75 1.138V8.69a.617.617 0 0 0 .615.615.617.617 0 0 0 .615-.615V7.214l1.107-.43-.984 4.98-2.41-.492a.615.615 0 0 0-.123-.012.616.616 0 0 0-.603.492v.025a.615.615 0 0 0-.012.123.616.616 0 0 0 .492.602l2.527.505a1.235 1.235 0 0 0 .24.023 1.23 1.23 0 0 0 1.199-.958Zm1.949-7.379c.676 0 1.23-.553 1.23-1.23a1.233 1.233 0 0 0-1.23-1.23c-.676 0-1.23.554-1.23 1.23a1.233 1.233 0 0 0 1.23 1.23Z" fill="#0fa59a" fill-rule="evenodd" data-name="Path 24"/></svg>