<svg xmlns="http://www.w3.org/2000/svg" width="21.842" height="21.839" viewBox="13.543 17.33 21.842 21.839"><path d="M27.667 33.356h-.002a1.597 1.597 0 0 0 .134.157l5.256 5.256a1.365 1.365 0 0 0 1.93 0 1.359 1.359 0 0 0 .374-.696 1.364 1.364 0 0 0-.373-1.234l-5.255-5.256a1.375 1.375 0 0 0-.157-.136v.001a8.84 8.84 0 0 0 1.652-4.173 8.87 8.87 0 0 0-2.754-7.558 8.998 8.998 0 0 0-.28-.25 8.84 8.84 0 0 0-4.556-2.053 8.867 8.867 0 0 0-7.166 2.203 8.991 8.991 0 0 0-.33.314 8.873 8.873 0 0 0 11.527 13.425Zm-5.25.353a7.508 7.508 0 0 0 7.509-7.508 7.508 7.508 0 0 0-7.508-7.508A7.508 7.508 0 0 0 14.91 26.2a7.508 7.508 0 0 0 7.508 7.508Z" fill="#a2a2a2" fill-rule="evenodd" data-name="search"/></svg>