<svg xmlns="http://www.w3.org/2000/svg" width="34.966" height="34.961" viewBox="74.517 45.769 34.966 34.961"><path d="M97.126 71.425h-.002a2.556 2.556 0 0 0 .214.25l8.413 8.414c.817.817 2.12.853 2.979.107a2.218 2.218 0 0 0 .112-.106 2.176 2.176 0 0 0 .599-1.115 2.184 2.184 0 0 0-.597-1.976l-8.414-8.413a2.2 2.2 0 0 0-.251-.219v.003a14.15 14.15 0 0 0 2.645-6.681 14.2 14.2 0 0 0-4.409-12.098 14.405 14.405 0 0 0-.448-.401 14.15 14.15 0 0 0-7.294-3.287 14.192 14.192 0 0 0-11.999 4.03 14.154 14.154 0 0 0-3.984 7.83 14.185 14.185 0 0 0 2.819 10.93 14.397 14.397 0 0 0 .435.533 14.16 14.16 0 0 0 8.354 4.744c3.49.603 7.19-.095 10.314-2.185a14.402 14.402 0 0 0 .514-.36Zm3.617-11.456c0 6.638-5.381 12.02-12.02 12.02a12.02 12.02 0 0 1-12.019-12.02c0-6.638 5.382-12.019 12.02-12.019a12.02 12.02 0 0 1 12.019 12.02Z" fill="#fff" fill-rule="evenodd" data-name="search"/></svg>